<svg xmlns="http://www.w3.org/2000/svg" xmlns:xlink="http://www.w3.org/1999/xlink" xmlns:svgjs="http://svgjs.com/svgjs" version="1.1" width="512" height="512" x="0" y="0" viewBox="0 0 35 35" style="enable-background:new 0 0 512 512" xml:space="preserve" class=""><g><g id="_x38_4"><path d="m32.5 7.5h-30v20h30zm-2 13.0800171c-2.5100098.4199829-4.5 2.4099731-4.9200439 4.9199829h-16.169983c-.4199829-2.5100098-2.3999633-4.5-4.9099731-4.9199829v-6.1700439c2.5100098-.419983 4.4899902-2.3999634 4.9099731-4.9099732h16.1699829c.420044 2.5100098 2.4100342 4.4899902 4.920044 4.9099731z" fill="#000000" data-original="#000000" class=""/><path d="m24.497 16.496h2v2h-2z" fill="#000000" data-original="#000000" class=""/><path d="m8.5 16.5h2v2h-2z" fill="#000000" data-original="#000000" class=""/><path d="m17.5 14.5c.5499878 0 1 .4400024 1 1h2c0-1.3099976-.8400269-2.4100342-2-2.8300171v-1.1699829h-2v1.1699829c-1.1700439.4100342-2 1.5200195-2 2.8300171 0 1.6500244 1.3399658 3 3 3 .5499878 0 1 .4400024 1 1 0 .5499878-.4500122 1-1 1s-1-.4500122-1-1h-2c0 1.2999878.8299561 2.4099731 2 2.8200073v1.1799927h2v-1.1799927c1.1599731-.4100342 2-1.5200195 2-2.8200073 0-1.6600342-1.3500366-3-3-3-.5499878 0-1-.4500122-1-1 0-.5599976.4500122-1 1-1z" fill="#000000" data-original="#000000" class=""/></g></g></svg>