<svg xmlns="http://www.w3.org/2000/svg" xmlns:xlink="http://www.w3.org/1999/xlink" xmlns:svgjs="http://svgjs.com/svgjs" version="1.1" width="512" height="512" x="0" y="0" viewBox="0 0 24 24" style="enable-background:new 0 0 512 512" xml:space="preserve"><g><path d="M22,11.25H10.6742a3.75,3.75,0,0,0-7.3484,0H2a.75.75,0,0,0,0,1.5H3.3258a3.75,3.75,0,0,0,7.3484,0H22a.75.75,0,0,0,0-1.5Zm-15,3A2.25,2.25,0,1,1,9.25,12,2.2528,2.2528,0,0,1,7,14.25Z" fill="#242325" data-original="#000000"/><path d="M22,4.25H19.6742a3.75,3.75,0,0,0-7.3484,0H2a.75.75,0,0,0,0,1.5H12.3258a3.75,3.75,0,0,0,7.3484,0H22a.75.75,0,0,0,0-1.5Zm-6,3A2.25,2.25,0,1,1,18.25,5,2.2528,2.2528,0,0,1,16,7.25Z" fill="#242325" data-original="#000000"/><path d="M22,18.25H19.6742a3.75,3.75,0,0,0-7.3484,0H2a.75.75,0,0,0,0,1.5H12.3258a3.75,3.75,0,0,0,7.3484,0H22a.75.75,0,0,0,0-1.5Zm-6,3A2.25,2.25,0,1,1,18.25,19,2.2528,2.2528,0,0,1,16,21.25Z" fill="#242325" data-original="#000000"/></g></svg>