<svg xmlns="http://www.w3.org/2000/svg" xmlns:xlink="http://www.w3.org/1999/xlink" xmlns:svgjs="http://svgjs.com/svgjs" version="1.1" width="512" height="512" x="0" y="0" viewBox="0 0 24 24" style="enable-background:new 0 0 512 512" xml:space="preserve" class=""><g><g clip-rule="evenodd" fill="rgb(0,0,0)" fill-rule="evenodd"><path d="m20.75 6c0 .41421-.3358.75-.75.75h-16c-.41421 0-.75-.33579-.75-.75s.33579-.75.75-.75h16c.4142 0 .75.33579.75.75z" fill="#ffffff" data-original="#000000" class=""/><path d="m20.75 12c0 .4142-.3358.75-.75.75h-16c-.41421 0-.75-.3358-.75-.75s.33579-.75.75-.75h16c.4142 0 .75.3358.75.75z" fill="#ffffff" data-original="#000000" class=""/><path d="m20.75 18c0 .4142-.3358.75-.75.75h-16c-.41421 0-.75-.3358-.75-.75s.33579-.75.75-.75h16c.4142 0 .75.3358.75.75z" fill="#ffffff" data-original="#000000" class=""/></g></g></svg>