<svg xmlns="http://www.w3.org/2000/svg" xmlns:xlink="http://www.w3.org/1999/xlink" xmlns:svgjs="http://svgjs.com/svgjs" version="1.1" width="512" height="512" x="0" y="0" viewBox="0 0 24 24" style="enable-background:new 0 0 512 512" xml:space="preserve"><g><path clip-rule="evenodd" d="m2 12c0 5.5228 4.47715 10 10 10 5.5228 0 10-4.4772 10-10 0-5.52285-4.4772-10-10-10-5.52285 0-10 4.47715-10 10zm2 0c0-4.41828 3.58172-8 8-8 4.4183 0 8 3.58172 8 8 0 4.4183-3.5817 8-8 8-4.41828 0-8-3.5817-8-8zm12.7372-2.32428c.3731-.40711.3456-1.03968-.0615-1.41287-.4071-.3732-1.0397-.34569-1.4129.06143l-4.7269 5.15672-1.76768-2.1212c-.35356-.4243-.98413-.4816-1.4084-.128-.42428.3535-.48161.9841-.12804 1.4084l2.5 3c.18471.2216.45612.3527.74462.3595.2884.0068.5658-.1113.7608-.324z" fill="#000000" fill-rule="evenodd" data-original="#000000"/></g></svg>